<mxfile host="app.diagrams.net" modified="2021-02-16T09:15:24.103Z" agent="5.0 (Windows NT 10.0; Win64; x64) AppleWebKit/537.36 (KHTML, like Gecko) Chrome/88.0.4324.150 Safari/537.36" etag="3OceN58cFHjTWmjcjRIQ" version="14.2.9" type="github">
  <diagram id="C5RBs43oDa-KdzZeNtuy" name="Page-1">
    <mxGraphModel dx="2036" dy="1796" grid="1" gridSize="10" guides="1" tooltips="1" connect="1" arrows="1" fold="1" page="1" pageScale="1" pageWidth="827" pageHeight="1169" math="0" shadow="0">
      <root>
        <mxCell id="WIyWlLk6GJQsqaUBKTNV-0" />
        <mxCell id="WIyWlLk6GJQsqaUBKTNV-1" parent="WIyWlLk6GJQsqaUBKTNV-0" />
        <mxCell id="WIyWlLk6GJQsqaUBKTNV-2" value="" style="rounded=0;html=1;jettySize=auto;orthogonalLoop=1;fontSize=11;endArrow=block;endFill=0;endSize=8;strokeWidth=1;shadow=1;labelBackgroundColor=none;edgeStyle=orthogonalEdgeStyle;sketch=1;" parent="WIyWlLk6GJQsqaUBKTNV-1" source="WIyWlLk6GJQsqaUBKTNV-3" target="WIyWlLk6GJQsqaUBKTNV-6" edge="1">
          <mxGeometry relative="1" as="geometry" />
        </mxCell>
        <mxCell id="nbki0UsxjsE7Ov7JMQCD-34" style="edgeStyle=orthogonalEdgeStyle;rounded=0;sketch=1;orthogonalLoop=1;jettySize=auto;html=1;shadow=1;" edge="1" parent="WIyWlLk6GJQsqaUBKTNV-1" source="WIyWlLk6GJQsqaUBKTNV-3" target="nbki0UsxjsE7Ov7JMQCD-35">
          <mxGeometry relative="1" as="geometry">
            <mxPoint x="220" y="-40" as="targetPoint" />
          </mxGeometry>
        </mxCell>
        <mxCell id="WIyWlLk6GJQsqaUBKTNV-3" value="Take phone number to do OTP login" style="rounded=1;whiteSpace=wrap;html=1;fontSize=12;glass=0;strokeWidth=1;shadow=1;sketch=1;" parent="WIyWlLk6GJQsqaUBKTNV-1" vertex="1">
          <mxGeometry x="160" y="20" width="120" height="40" as="geometry" />
        </mxCell>
        <mxCell id="WIyWlLk6GJQsqaUBKTNV-4" value="Yes" style="rounded=0;html=1;jettySize=auto;orthogonalLoop=1;fontSize=11;endArrow=block;endFill=0;endSize=8;strokeWidth=1;shadow=1;labelBackgroundColor=none;edgeStyle=orthogonalEdgeStyle;sketch=1;" parent="WIyWlLk6GJQsqaUBKTNV-1" source="WIyWlLk6GJQsqaUBKTNV-6" edge="1">
          <mxGeometry y="20" relative="1" as="geometry">
            <mxPoint as="offset" />
            <mxPoint x="220" y="430" as="targetPoint" />
          </mxGeometry>
        </mxCell>
        <mxCell id="WIyWlLk6GJQsqaUBKTNV-6" value="Login / Signup" style="rhombus;whiteSpace=wrap;html=1;shadow=1;fontFamily=Helvetica;fontSize=12;align=center;strokeWidth=1;spacing=6;spacingTop=-4;sketch=1;" parent="WIyWlLk6GJQsqaUBKTNV-1" vertex="1">
          <mxGeometry x="170" y="170" width="100" height="80" as="geometry" />
        </mxCell>
        <mxCell id="nbki0UsxjsE7Ov7JMQCD-7" value="" style="edgeStyle=orthogonalEdgeStyle;rounded=0;sketch=1;orthogonalLoop=1;jettySize=auto;html=1;shadow=1;" edge="1" parent="WIyWlLk6GJQsqaUBKTNV-1" source="WIyWlLk6GJQsqaUBKTNV-7" target="nbki0UsxjsE7Ov7JMQCD-6">
          <mxGeometry relative="1" as="geometry" />
        </mxCell>
        <mxCell id="WIyWlLk6GJQsqaUBKTNV-7" value="Sign Up" style="rounded=1;whiteSpace=wrap;html=1;fontSize=12;glass=0;strokeWidth=1;shadow=1;sketch=1;" parent="WIyWlLk6GJQsqaUBKTNV-1" vertex="1">
          <mxGeometry x="320" y="190" width="120" height="40" as="geometry" />
        </mxCell>
        <mxCell id="nbki0UsxjsE7Ov7JMQCD-27" style="edgeStyle=orthogonalEdgeStyle;rounded=0;sketch=1;orthogonalLoop=1;jettySize=auto;html=1;entryX=0.5;entryY=0;entryDx=0;entryDy=0;shadow=1;" edge="1" parent="WIyWlLk6GJQsqaUBKTNV-1" source="WIyWlLk6GJQsqaUBKTNV-11" target="nbki0UsxjsE7Ov7JMQCD-26">
          <mxGeometry relative="1" as="geometry">
            <Array as="points">
              <mxPoint x="10" y="710" />
              <mxPoint x="220" y="710" />
            </Array>
          </mxGeometry>
        </mxCell>
        <mxCell id="WIyWlLk6GJQsqaUBKTNV-11" value="Basic" style="rounded=1;whiteSpace=wrap;html=1;fontSize=12;glass=0;strokeWidth=1;shadow=1;sketch=1;" parent="WIyWlLk6GJQsqaUBKTNV-1" vertex="1">
          <mxGeometry x="-50" y="630" width="120" height="40" as="geometry" />
        </mxCell>
        <mxCell id="nbki0UsxjsE7Ov7JMQCD-1" value="No" style="edgeStyle=orthogonalEdgeStyle;rounded=0;html=1;jettySize=auto;orthogonalLoop=1;fontSize=11;endArrow=block;endFill=0;endSize=8;strokeWidth=1;shadow=1;labelBackgroundColor=none;sketch=1;" edge="1" parent="WIyWlLk6GJQsqaUBKTNV-1" source="WIyWlLk6GJQsqaUBKTNV-6">
          <mxGeometry y="10" relative="1" as="geometry">
            <mxPoint as="offset" />
            <mxPoint x="270" y="210" as="sourcePoint" />
            <mxPoint x="320" y="210" as="targetPoint" />
          </mxGeometry>
        </mxCell>
        <mxCell id="nbki0UsxjsE7Ov7JMQCD-8" style="edgeStyle=orthogonalEdgeStyle;rounded=0;sketch=1;orthogonalLoop=1;jettySize=auto;html=1;shadow=1;" edge="1" parent="WIyWlLk6GJQsqaUBKTNV-1" source="nbki0UsxjsE7Ov7JMQCD-6">
          <mxGeometry relative="1" as="geometry">
            <mxPoint x="220" y="430" as="targetPoint" />
            <Array as="points">
              <mxPoint x="550" y="370" />
              <mxPoint x="220" y="370" />
            </Array>
          </mxGeometry>
        </mxCell>
        <mxCell id="nbki0UsxjsE7Ov7JMQCD-6" value="OTP / Email login" style="rounded=1;whiteSpace=wrap;html=1;fontSize=12;glass=0;strokeWidth=1;shadow=1;sketch=1;" vertex="1" parent="WIyWlLk6GJQsqaUBKTNV-1">
          <mxGeometry x="500" y="190" width="120" height="40" as="geometry" />
        </mxCell>
        <mxCell id="nbki0UsxjsE7Ov7JMQCD-10" style="edgeStyle=orthogonalEdgeStyle;rounded=0;sketch=1;orthogonalLoop=1;jettySize=auto;html=1;entryX=0.5;entryY=0;entryDx=0;entryDy=0;shadow=1;" edge="1" parent="WIyWlLk6GJQsqaUBKTNV-1" source="nbki0UsxjsE7Ov7JMQCD-9" target="WIyWlLk6GJQsqaUBKTNV-11">
          <mxGeometry relative="1" as="geometry">
            <Array as="points">
              <mxPoint x="220" y="550" />
              <mxPoint x="20" y="550" />
              <mxPoint x="20" y="630" />
            </Array>
          </mxGeometry>
        </mxCell>
        <mxCell id="nbki0UsxjsE7Ov7JMQCD-19" style="edgeStyle=orthogonalEdgeStyle;rounded=0;sketch=1;orthogonalLoop=1;jettySize=auto;html=1;shadow=1;" edge="1" parent="WIyWlLk6GJQsqaUBKTNV-1" source="nbki0UsxjsE7Ov7JMQCD-9" target="nbki0UsxjsE7Ov7JMQCD-18">
          <mxGeometry relative="1" as="geometry" />
        </mxCell>
        <mxCell id="nbki0UsxjsE7Ov7JMQCD-25" style="edgeStyle=orthogonalEdgeStyle;rounded=0;sketch=1;orthogonalLoop=1;jettySize=auto;html=1;shadow=1;" edge="1" parent="WIyWlLk6GJQsqaUBKTNV-1" source="nbki0UsxjsE7Ov7JMQCD-9" target="nbki0UsxjsE7Ov7JMQCD-24">
          <mxGeometry relative="1" as="geometry">
            <Array as="points">
              <mxPoint x="220" y="550" />
              <mxPoint x="430" y="550" />
            </Array>
          </mxGeometry>
        </mxCell>
        <mxCell id="nbki0UsxjsE7Ov7JMQCD-9" value="Show Packages to select" style="rounded=1;whiteSpace=wrap;html=1;shadow=1;glass=0;sketch=1;" vertex="1" parent="WIyWlLk6GJQsqaUBKTNV-1">
          <mxGeometry x="160" y="430" width="120" height="60" as="geometry" />
        </mxCell>
        <mxCell id="nbki0UsxjsE7Ov7JMQCD-28" style="edgeStyle=orthogonalEdgeStyle;rounded=0;sketch=1;orthogonalLoop=1;jettySize=auto;html=1;entryX=0.5;entryY=0;entryDx=0;entryDy=0;shadow=1;" edge="1" parent="WIyWlLk6GJQsqaUBKTNV-1" source="nbki0UsxjsE7Ov7JMQCD-18" target="nbki0UsxjsE7Ov7JMQCD-26">
          <mxGeometry relative="1" as="geometry" />
        </mxCell>
        <mxCell id="nbki0UsxjsE7Ov7JMQCD-18" value="Standard" style="rounded=1;whiteSpace=wrap;html=1;shadow=1;glass=0;sketch=1;" vertex="1" parent="WIyWlLk6GJQsqaUBKTNV-1">
          <mxGeometry x="160" y="610" width="120" height="60" as="geometry" />
        </mxCell>
        <mxCell id="nbki0UsxjsE7Ov7JMQCD-29" style="edgeStyle=orthogonalEdgeStyle;rounded=0;sketch=1;orthogonalLoop=1;jettySize=auto;html=1;entryX=0.5;entryY=0;entryDx=0;entryDy=0;shadow=1;" edge="1" parent="WIyWlLk6GJQsqaUBKTNV-1" source="nbki0UsxjsE7Ov7JMQCD-24" target="nbki0UsxjsE7Ov7JMQCD-26">
          <mxGeometry relative="1" as="geometry">
            <Array as="points">
              <mxPoint x="430" y="710" />
              <mxPoint x="220" y="710" />
            </Array>
          </mxGeometry>
        </mxCell>
        <mxCell id="nbki0UsxjsE7Ov7JMQCD-24" value="Comprehensive" style="rounded=1;whiteSpace=wrap;html=1;shadow=1;glass=0;sketch=1;" vertex="1" parent="WIyWlLk6GJQsqaUBKTNV-1">
          <mxGeometry x="370" y="620" width="120" height="60" as="geometry" />
        </mxCell>
        <mxCell id="nbki0UsxjsE7Ov7JMQCD-33" style="edgeStyle=orthogonalEdgeStyle;rounded=0;sketch=1;orthogonalLoop=1;jettySize=auto;html=1;shadow=1;" edge="1" parent="WIyWlLk6GJQsqaUBKTNV-1" source="nbki0UsxjsE7Ov7JMQCD-26" target="nbki0UsxjsE7Ov7JMQCD-31">
          <mxGeometry relative="1" as="geometry" />
        </mxCell>
        <mxCell id="nbki0UsxjsE7Ov7JMQCD-26" value="Add to card" style="rounded=1;whiteSpace=wrap;html=1;shadow=1;glass=0;sketch=1;" vertex="1" parent="WIyWlLk6GJQsqaUBKTNV-1">
          <mxGeometry x="160" y="780" width="120" height="60" as="geometry" />
        </mxCell>
        <mxCell id="nbki0UsxjsE7Ov7JMQCD-46" value="" style="edgeStyle=orthogonalEdgeStyle;rounded=0;sketch=1;orthogonalLoop=1;jettySize=auto;html=1;shadow=1;" edge="1" parent="WIyWlLk6GJQsqaUBKTNV-1" source="nbki0UsxjsE7Ov7JMQCD-31" target="nbki0UsxjsE7Ov7JMQCD-45">
          <mxGeometry relative="1" as="geometry" />
        </mxCell>
        <mxCell id="nbki0UsxjsE7Ov7JMQCD-31" value="Place an order&amp;nbsp;" style="rounded=1;whiteSpace=wrap;html=1;shadow=1;glass=0;sketch=1;" vertex="1" parent="WIyWlLk6GJQsqaUBKTNV-1">
          <mxGeometry x="160" y="920" width="120" height="60" as="geometry" />
        </mxCell>
        <mxCell id="nbki0UsxjsE7Ov7JMQCD-39" style="edgeStyle=orthogonalEdgeStyle;rounded=0;sketch=1;orthogonalLoop=1;jettySize=auto;html=1;shadow=1;entryX=0.5;entryY=1;entryDx=0;entryDy=0;" edge="1" parent="WIyWlLk6GJQsqaUBKTNV-1" source="nbki0UsxjsE7Ov7JMQCD-35" target="nbki0UsxjsE7Ov7JMQCD-40">
          <mxGeometry relative="1" as="geometry">
            <mxPoint x="220" y="-160" as="targetPoint" />
          </mxGeometry>
        </mxCell>
        <mxCell id="nbki0UsxjsE7Ov7JMQCD-35" value="Fuel Variant" style="rounded=1;whiteSpace=wrap;html=1;shadow=1;glass=0;sketch=1;" vertex="1" parent="WIyWlLk6GJQsqaUBKTNV-1">
          <mxGeometry x="160" y="-100" width="120" height="60" as="geometry" />
        </mxCell>
        <mxCell id="nbki0UsxjsE7Ov7JMQCD-42" style="edgeStyle=orthogonalEdgeStyle;rounded=0;sketch=1;orthogonalLoop=1;jettySize=auto;html=1;shadow=1;" edge="1" parent="WIyWlLk6GJQsqaUBKTNV-1" source="nbki0UsxjsE7Ov7JMQCD-40" target="nbki0UsxjsE7Ov7JMQCD-41">
          <mxGeometry relative="1" as="geometry" />
        </mxCell>
        <mxCell id="nbki0UsxjsE7Ov7JMQCD-40" value="Car Model" style="rounded=1;whiteSpace=wrap;html=1;shadow=1;glass=0;sketch=1;" vertex="1" parent="WIyWlLk6GJQsqaUBKTNV-1">
          <mxGeometry x="160" y="-230" width="119" height="60" as="geometry" />
        </mxCell>
        <mxCell id="nbki0UsxjsE7Ov7JMQCD-41" value="Select Brands" style="rounded=1;whiteSpace=wrap;html=1;shadow=1;glass=0;sketch=1;" vertex="1" parent="WIyWlLk6GJQsqaUBKTNV-1">
          <mxGeometry x="160" y="-360" width="120" height="60" as="geometry" />
        </mxCell>
        <mxCell id="nbki0UsxjsE7Ov7JMQCD-50" value="" style="edgeStyle=orthogonalEdgeStyle;rounded=0;sketch=1;orthogonalLoop=1;jettySize=auto;html=1;shadow=1;" edge="1" parent="WIyWlLk6GJQsqaUBKTNV-1" source="nbki0UsxjsE7Ov7JMQCD-45" target="nbki0UsxjsE7Ov7JMQCD-49">
          <mxGeometry relative="1" as="geometry" />
        </mxCell>
        <mxCell id="nbki0UsxjsE7Ov7JMQCD-45" value="Select date and time of services" style="rounded=1;whiteSpace=wrap;html=1;shadow=1;glass=0;sketch=1;" vertex="1" parent="WIyWlLk6GJQsqaUBKTNV-1">
          <mxGeometry x="160" y="1060" width="120" height="60" as="geometry" />
        </mxCell>
        <mxCell id="nbki0UsxjsE7Ov7JMQCD-53" value="" style="edgeStyle=orthogonalEdgeStyle;rounded=0;sketch=1;orthogonalLoop=1;jettySize=auto;html=1;shadow=1;" edge="1" parent="WIyWlLk6GJQsqaUBKTNV-1" source="nbki0UsxjsE7Ov7JMQCD-49" target="nbki0UsxjsE7Ov7JMQCD-52">
          <mxGeometry relative="1" as="geometry" />
        </mxCell>
        <mxCell id="nbki0UsxjsE7Ov7JMQCD-49" value="Enter Address / Add location&amp;nbsp;" style="rounded=1;whiteSpace=wrap;html=1;shadow=1;glass=0;sketch=1;" vertex="1" parent="WIyWlLk6GJQsqaUBKTNV-1">
          <mxGeometry x="160" y="1200" width="120" height="60" as="geometry" />
        </mxCell>
        <mxCell id="nbki0UsxjsE7Ov7JMQCD-52" value="Select payment method" style="rounded=1;whiteSpace=wrap;html=1;shadow=1;glass=0;sketch=1;" vertex="1" parent="WIyWlLk6GJQsqaUBKTNV-1">
          <mxGeometry x="160" y="1340" width="120" height="60" as="geometry" />
        </mxCell>
      </root>
    </mxGraphModel>
  </diagram>
</mxfile>
